<svg aria-hidden="true" style="position: absolute; width: 0; height: 0; overflow: hidden;" version="1.1" xmlns="http://www.w3.org/2000/svg" xmlns:xlink="http://www.w3.org/1999/xlink">
<defs>
<symbol id="icon-play-button" viewBox="0 0 32 32">
<path fill="#fff" style="fill: var(--color1, #fff)" opacity="0.8" d="M32 16c0 8.837-7.163 16-16 16s-16-7.163-16-16c0-8.837 7.163-16 16-16s16 7.163 16 16z"></path>
<path fill="#487996" style="fill: var(--color2, #487996)" d="M22.141 15.586c0.144 0.084 0.239 0.238 0.239 0.414s-0.095 0.329-0.237 0.412l-0.002 0.001-8.853 5.111c-0.069 0.040-0.151 0.064-0.239 0.064-0.264 0-0.478-0.214-0.478-0.478v0-10.222c0-0.264 0.214-0.478 0.478-0.478 0.088 0 0.17 0.024 0.241 0.065l-0.002-0.001 8.853 5.111z"></path>
</symbol>
<symbol id="icon-paper-clip" viewBox="0 0 35 32">
<path d="M6.295 32c-1.489 0-2.811-0.56-3.967-1.678-1.222-1.184-1.832-2.617-1.832-4.305 0-1.689 0.61-3.124 1.832-4.307l19.166-19.674c0.897-0.911 2.047-1.57 3.336-1.863l0.046-0.009c0.461-0.104 0.991-0.164 1.535-0.164 0.84 0 1.648 0.143 2.399 0.405l-0.051-0.016c1.312 0.432 2.523 1.173 3.633 2.227 0.352 0.363 0.676 0.758 0.964 1.179l0.020 0.031c0.299 0.44 0.544 0.902 0.733 1.387 0.368 0.933 0.583 2.014 0.584 3.145v0.001c-0.045 2.278-0.845 4.182-2.4 5.708l-14.499 14.901c-0.181 0.202-0.441 0.331-0.731 0.339l-0.001 0c-0.017 0.001-0.038 0.002-0.058 0.002-0.269 0-0.513-0.105-0.695-0.276l0 0c-0.2-0.18-0.326-0.438-0.331-0.725v-0.001c-0.001-0.016-0.001-0.035-0.001-0.053 0-0.274 0.109-0.523 0.285-0.705l-0 0 14.497-14.901c1.177-1.161 1.777-2.603 1.8-4.323s-0.544-3.129-1.699-4.225c-0.661-0.669-1.446-1.213-2.32-1.594l-0.048-0.019c-0.604-0.258-1.308-0.409-2.046-0.409-0.266 0-0.527 0.019-0.782 0.057l0.029-0.003c-1 0.128-1.888 0.57-2.665 1.323l-19.166 19.674c-0.821 0.797-1.232 1.753-1.232 2.872 0 1.117 0.411 2.075 1.232 2.87 0.379 0.365 0.79 0.64 1.235 0.822 0.443 0.182 0.91 0.253 1.398 0.21 0.979-0.043 1.889-0.483 2.734-1.323l15.23-15.675c0.233-0.226 0.442-0.474 0.623-0.742l0.010-0.016c0.112-0.16 0.202-0.333 0.267-0.515 0.067-0.184 0.112-0.366 0.134-0.549 0.004-0.032 0.006-0.070 0.006-0.107 0-0.167-0.039-0.324-0.109-0.463l0.003 0.006c-0.103-0.213-0.237-0.395-0.399-0.548l-0.001-0.001c-0.422-0.429-0.832-0.624-1.232-0.581-0.424 0.043-0.901 0.312-1.435 0.806l-11.464 11.807c-0.128 0.123-0.284 0.217-0.459 0.27l-0.008 0.002c-0.093 0.029-0.199 0.046-0.309 0.046-0.28 0-0.535-0.109-0.725-0.287l0.001 0.001c-0.204-0.168-0.333-0.42-0.333-0.702 0-0.003 0-0.006 0-0.009v0c0-0.28 0.099-0.528 0.299-0.742l11.466-11.837c0.912-0.859 1.833-1.333 2.768-1.419 1.065-0.086 2.043 0.301 2.931 1.161 0.845 0.795 1.216 1.731 1.117 2.806s-0.638 2.086-1.616 3.032l-15.23 15.708c-1.246 1.203-2.635 1.849-4.167 1.936-0.054 0.001-0.105 0.006-0.156 0.017l0.005-0.001c-0.044 0.010-0.096 0.015-0.148 0.016h-0z"></path>
</symbol>
</defs>
</svg>
